<svg xmlns="http://www.w3.org/2000/svg" version="1.1" viewBox="0 0 800 800">
    <g stroke-width="1" stroke="hsl(265, 55%, 20%)" fill="none" stroke-linecap="round"
        transform="matrix(1,0,0,1,0,-463.01490592956543)">
   
        
        <path
            d="M10,10C21.805555555555557,10.625,40.97222222222223,17.583333333333332,66.66666666666667,13C92.36111111111111,8.416666666666668,105.55555555555557,-13.666666666666666,133.33333333333334,-12C161.11111111111111,-10.333333333333334,172.22222222222223,20.375,200,21C227.77777777777777,21.625,238.8888888888889,-10.25,266.6666666666667,-9C294.44444444444446,-7.75,305.5555555555556,26.583333333333332,333.33333333333337,27C361.11111111111114,27.416666666666668,372.22222222222223,-8.458333333333334,400,-7C427.77777777777777,-5.541666666666666,438.8888888888889,31.708333333333332,466.6666666666667,34C494.44444444444446,36.291666666666664,505.5555555555556,4.833333333333333,533.3333333333334,4C561.1111111111111,3.166666666666667,572.2222222222222,29.166666666666668,600,30C627.7777777777778,30.833333333333332,638.8888888888889,7.166666666666667,666.6666666666667,8C694.4444444444446,8.833333333333334,707.6388888888889,33.583333333333336,733.3333333333334,34C759.0277777777778,34.416666666666664,778.1944444444445,15,790,10"
            transform="matrix(1,0,0,1,0,852)"></path>
        <path
            d="M10,10C21.805555555555557,10.625,40.97222222222223,17.583333333333332,66.66666666666667,13C92.36111111111111,8.416666666666668,105.55555555555557,-13.666666666666666,133.33333333333334,-12C161.11111111111111,-10.333333333333334,172.22222222222223,20.375,200,21C227.77777777777777,21.625,238.8888888888889,-10.25,266.6666666666667,-9C294.44444444444446,-7.75,305.5555555555556,26.583333333333332,333.33333333333337,27C361.11111111111114,27.416666666666668,372.22222222222223,-8.458333333333334,400,-7C427.77777777777777,-5.541666666666666,438.8888888888889,31.708333333333332,466.6666666666667,34C494.44444444444446,36.291666666666664,505.5555555555556,4.833333333333333,533.3333333333334,4C561.1111111111111,3.166666666666667,572.2222222222222,29.166666666666668,600,30C627.7777777777778,30.833333333333332,638.8888888888889,7.166666666666667,666.6666666666667,8C694.4444444444446,8.833333333333334,707.6388888888889,33.583333333333336,733.3333333333334,34C759.0277777777778,34.416666666666664,778.1944444444445,15,790,10"
            transform="matrix(1,0,0,1,0,852)"></path>
        <path
            d="M10,10C21.805555555555557,10.625,40.97222222222223,17.583333333333332,66.66666666666667,13C92.36111111111111,8.416666666666668,105.55555555555557,-13.666666666666666,133.33333333333334,-12C161.11111111111111,-10.333333333333334,172.22222222222223,20.375,200,21C227.77777777777777,21.625,238.8888888888889,-10.25,266.6666666666667,-9C294.44444444444446,-7.75,305.5555555555556,26.583333333333332,333.33333333333337,27C361.11111111111114,27.416666666666668,372.22222222222223,-8.458333333333334,400,-7C427.77777777777777,-5.541666666666666,438.8888888888889,31.708333333333332,466.6666666666667,34C494.44444444444446,36.291666666666664,505.5555555555556,4.833333333333333,533.3333333333334,4C561.1111111111111,3.166666666666667,572.2222222222222,29.166666666666668,600,30C627.7777777777778,30.833333333333332,638.8888888888889,7.166666666666667,666.6666666666667,8C694.4444444444446,8.833333333333334,707.6388888888889,33.583333333333336,733.3333333333334,34C759.0277777777778,34.416666666666664,778.1944444444445,15,790,10"
            transform="matrix(1,0,0,1,0,781)"></path>
        <path
            d="M10,10C21.805555555555557,10.625,40.97222222222223,17.583333333333332,66.66666666666667,13C92.36111111111111,8.416666666666668,105.55555555555557,-13.666666666666666,133.33333333333334,-12C161.11111111111111,-10.333333333333334,172.22222222222223,20.375,200,21C227.77777777777777,21.625,238.8888888888889,-10.25,266.6666666666667,-9C294.44444444444446,-7.75,305.5555555555556,26.583333333333332,333.33333333333337,27C361.11111111111114,27.416666666666668,372.22222222222223,-8.458333333333334,400,-7C427.77777777777777,-5.541666666666666,438.8888888888889,31.708333333333332,466.6666666666667,34C494.44444444444446,36.291666666666664,505.5555555555556,4.833333333333333,533.3333333333334,4C561.1111111111111,3.166666666666667,572.2222222222222,29.166666666666668,600,30C627.7777777777778,30.833333333333332,638.8888888888889,7.166666666666667,666.6666666666667,8C694.4444444444446,8.833333333333334,707.6388888888889,33.583333333333336,733.3333333333334,34C759.0277777777778,34.416666666666664,778.1944444444445,15,790,10"
            transform="matrix(1,0,0,1,0,710)"></path>
        <path
            d="M10,10C21.805555555555557,10.625,40.97222222222223,17.583333333333332,66.66666666666667,13C92.36111111111111,8.416666666666668,105.55555555555557,-13.666666666666666,133.33333333333334,-12C161.11111111111111,-10.333333333333334,172.22222222222223,20.375,200,21C227.77777777777777,21.625,238.8888888888889,-10.25,266.6666666666667,-9C294.44444444444446,-7.75,305.5555555555556,26.583333333333332,333.33333333333337,27C361.11111111111114,27.416666666666668,372.22222222222223,-8.458333333333334,400,-7C427.77777777777777,-5.541666666666666,438.8888888888889,31.708333333333332,466.6666666666667,34C494.44444444444446,36.291666666666664,505.5555555555556,4.833333333333333,533.3333333333334,4C561.1111111111111,3.166666666666667,572.2222222222222,29.166666666666668,600,30C627.7777777777778,30.833333333333332,638.8888888888889,7.166666666666667,666.6666666666667,8C694.4444444444446,8.833333333333334,707.6388888888889,33.583333333333336,733.3333333333334,34C759.0277777777778,34.416666666666664,778.1944444444445,15,790,10"
            transform="matrix(1,0,0,1,0,639)"></path>
        <path
            d="M10,10C21.805555555555557,10.625,40.97222222222223,17.583333333333332,66.66666666666667,13C92.36111111111111,8.416666666666668,105.55555555555557,-13.666666666666666,133.33333333333334,-12C161.11111111111111,-10.333333333333334,172.22222222222223,20.375,200,21C227.77777777777777,21.625,238.8888888888889,-10.25,266.6666666666667,-9C294.44444444444446,-7.75,305.5555555555556,26.583333333333332,333.33333333333337,27C361.11111111111114,27.416666666666668,372.22222222222223,-8.458333333333334,400,-7C427.77777777777777,-5.541666666666666,438.8888888888889,31.708333333333332,466.6666666666667,34C494.44444444444446,36.291666666666664,505.5555555555556,4.833333333333333,533.3333333333334,4C561.1111111111111,3.166666666666667,572.2222222222222,29.166666666666668,600,30C627.7777777777778,30.833333333333332,638.8888888888889,7.166666666666667,666.6666666666667,8C694.4444444444446,8.833333333333334,707.6388888888889,33.583333333333336,733.3333333333334,34C759.0277777777778,34.416666666666664,778.1944444444445,15,790,10"
            transform="matrix(1,0,0,1,0,568)"></path>
        <path
            d="M10,10C21.805555555555557,10.625,40.97222222222223,17.583333333333332,66.66666666666667,13C92.36111111111111,8.416666666666668,105.55555555555557,-13.666666666666666,133.33333333333334,-12C161.11111111111111,-10.333333333333334,172.22222222222223,20.375,200,21C227.77777777777777,21.625,238.8888888888889,-10.25,266.6666666666667,-9C294.44444444444446,-7.75,305.5555555555556,26.583333333333332,333.33333333333337,27C361.11111111111114,27.416666666666668,372.22222222222223,-8.458333333333334,400,-7C427.77777777777777,-5.541666666666666,438.8888888888889,31.708333333333332,466.6666666666667,34C494.44444444444446,36.291666666666664,505.5555555555556,4.833333333333333,533.3333333333334,4C561.1111111111111,3.166666666666667,572.2222222222222,29.166666666666668,600,30C627.7777777777778,30.833333333333332,638.8888888888889,7.166666666666667,666.6666666666667,8C694.4444444444446,8.833333333333334,707.6388888888889,33.583333333333336,733.3333333333334,34C759.0277777777778,34.416666666666664,778.1944444444445,15,790,10"
            transform="matrix(1,0,0,1,0,497)"></path>
        <path
            d="M10,10C21.805555555555557,10.625,40.97222222222223,17.583333333333332,66.66666666666667,13C92.36111111111111,8.416666666666668,105.55555555555557,-13.666666666666666,133.33333333333334,-12C161.11111111111111,-10.333333333333334,172.22222222222223,20.375,200,21C227.77777777777777,21.625,238.8888888888889,-10.25,266.6666666666667,-9C294.44444444444446,-7.75,305.5555555555556,26.583333333333332,333.33333333333337,27C361.11111111111114,27.416666666666668,372.22222222222223,-8.458333333333334,400,-7C427.77777777777777,-5.541666666666666,438.8888888888889,31.708333333333332,466.6666666666667,34C494.44444444444446,36.291666666666664,505.5555555555556,4.833333333333333,533.3333333333334,4C561.1111111111111,3.166666666666667,572.2222222222222,29.166666666666668,600,30C627.7777777777778,30.833333333333332,638.8888888888889,7.166666666666667,666.6666666666667,8C694.4444444444446,8.833333333333334,707.6388888888889,33.583333333333336,733.3333333333334,34C759.0277777777778,34.416666666666664,778.1944444444445,15,790,10"
            transform="matrix(1,0,0,1,0,426)"></path>
        <path
            d="M10,10C21.805555555555557,10.625,40.97222222222223,17.583333333333332,66.66666666666667,13C92.36111111111111,8.416666666666668,105.55555555555557,-13.666666666666666,133.33333333333334,-12C161.11111111111111,-10.333333333333334,172.22222222222223,20.375,200,21C227.77777777777777,21.625,238.8888888888889,-10.25,266.6666666666667,-9C294.44444444444446,-7.75,305.5555555555556,26.583333333333332,333.33333333333337,27C361.11111111111114,27.416666666666668,372.22222222222223,-8.458333333333334,400,-7C427.77777777777777,-5.541666666666666,438.8888888888889,31.708333333333332,466.6666666666667,34C494.44444444444446,36.291666666666664,505.5555555555556,4.833333333333333,533.3333333333334,4C561.1111111111111,3.166666666666667,572.2222222222222,29.166666666666668,600,30C627.7777777777778,30.833333333333332,638.8888888888889,7.166666666666667,666.6666666666667,8C694.4444444444446,8.833333333333334,707.6388888888889,33.583333333333336,733.3333333333334,34C759.0277777777778,34.416666666666664,778.1944444444445,15,790,10"
            transform="matrix(1,0,0,1,0,355)"></path>
        <path
            d="M10,10C21.805555555555557,10.625,40.97222222222223,17.583333333333332,66.66666666666667,13C92.36111111111111,8.416666666666668,105.55555555555557,-13.666666666666666,133.33333333333334,-12C161.11111111111111,-10.333333333333334,172.22222222222223,20.375,200,21C227.77777777777777,21.625,238.8888888888889,-10.25,266.6666666666667,-9C294.44444444444446,-7.75,305.5555555555556,26.583333333333332,333.33333333333337,27C361.11111111111114,27.416666666666668,372.22222222222223,-8.458333333333334,400,-7C427.77777777777777,-5.541666666666666,438.8888888888889,31.708333333333332,466.6666666666667,34C494.44444444444446,36.291666666666664,505.5555555555556,4.833333333333333,533.3333333333334,4C561.1111111111111,3.166666666666667,572.2222222222222,29.166666666666668,600,30C627.7777777777778,30.833333333333332,638.8888888888889,7.166666666666667,666.6666666666667,8C694.4444444444446,8.833333333333334,707.6388888888889,33.583333333333336,733.3333333333334,34C759.0277777777778,34.416666666666664,778.1944444444445,15,790,10"
            transform="matrix(1,0,0,1,0,284)"></path>
        <path
            d="M10,10C21.805555555555557,10.625,40.97222222222223,17.583333333333332,66.66666666666667,13C92.36111111111111,8.416666666666668,105.55555555555557,-13.666666666666666,133.33333333333334,-12C161.11111111111111,-10.333333333333334,172.22222222222223,20.375,200,21C227.77777777777777,21.625,238.8888888888889,-10.25,266.6666666666667,-9C294.44444444444446,-7.75,305.5555555555556,26.583333333333332,333.33333333333337,27C361.11111111111114,27.416666666666668,372.22222222222223,-8.458333333333334,400,-7C427.77777777777777,-5.541666666666666,438.8888888888889,31.708333333333332,466.6666666666667,34C494.44444444444446,36.291666666666664,505.5555555555556,4.833333333333333,533.3333333333334,4C561.1111111111111,3.166666666666667,572.2222222222222,29.166666666666668,600,30C627.7777777777778,30.833333333333332,638.8888888888889,7.166666666666667,666.6666666666667,8C694.4444444444446,8.833333333333334,707.6388888888889,33.583333333333336,733.3333333333334,34C759.0277777777778,34.416666666666664,778.1944444444445,15,790,10"
            transform="matrix(1,0,0,1,0,213)"></path>
        <path
            d="M10,10C21.805555555555557,10.625,40.97222222222223,17.583333333333332,66.66666666666667,13C92.36111111111111,8.416666666666668,105.55555555555557,-13.666666666666666,133.33333333333334,-12C161.11111111111111,-10.333333333333334,172.22222222222223,20.375,200,21C227.77777777777777,21.625,238.8888888888889,-10.25,266.6666666666667,-9C294.44444444444446,-7.75,305.5555555555556,26.583333333333332,333.33333333333337,27C361.11111111111114,27.416666666666668,372.22222222222223,-8.458333333333334,400,-7C427.77777777777777,-5.541666666666666,438.8888888888889,31.708333333333332,466.6666666666667,34C494.44444444444446,36.291666666666664,505.5555555555556,4.833333333333333,533.3333333333334,4C561.1111111111111,3.166666666666667,572.2222222222222,29.166666666666668,600,30C627.7777777777778,30.833333333333332,638.8888888888889,7.166666666666667,666.6666666666667,8C694.4444444444446,8.833333333333334,707.6388888888889,33.583333333333336,733.3333333333334,34C759.0277777777778,34.416666666666664,778.1944444444445,15,790,10"
            transform="matrix(1,0,0,1,0,142)"></path>
        <path
            d="M10,10C21.805555555555557,10.625,40.97222222222223,17.583333333333332,66.66666666666667,13C92.36111111111111,8.416666666666668,105.55555555555557,-13.666666666666666,133.33333333333334,-12C161.11111111111111,-10.333333333333334,172.22222222222223,20.375,200,21C227.77777777777777,21.625,238.8888888888889,-10.25,266.6666666666667,-9C294.44444444444446,-7.75,305.5555555555556,26.583333333333332,333.33333333333337,27C361.11111111111114,27.416666666666668,372.22222222222223,-8.458333333333334,400,-7C427.77777777777777,-5.541666666666666,438.8888888888889,31.708333333333332,466.6666666666667,34C494.44444444444446,36.291666666666664,505.5555555555556,4.833333333333333,533.3333333333334,4C561.1111111111111,3.166666666666667,572.2222222222222,29.166666666666668,600,30C627.7777777777778,30.833333333333332,638.8888888888889,7.166666666666667,666.6666666666667,8C694.4444444444446,8.833333333333334,707.6388888888889,33.583333333333336,733.3333333333334,34C759.0277777777778,34.416666666666664,778.1944444444445,15,790,10"
            transform="matrix(1,0,0,1,0,71)"></path>
    </g>
</svg>