<svg width="1439" height="1054" viewBox="0 0 1439 1054" fill="none" xmlns="http://www.w3.org/2000/svg">
    <path d="M1 46.5C1 46.5 98.6291 144.831 179 151C271.731 158.118 299.996 46.5 393 46.5C486.004 46.5 514.034 148.339 607 151C705.794 153.827 739.264 35.6339 837.5 46.5C916.95 55.2882 933.571 150.024 1013.5 151C1095.11 151.997 1112.88 46.0067 1194.5 46.5C1275.27 46.9882 1301.26 188.12 1373 151C1420.72 126.308 1438.5 30 1438.5 30" stroke="#5E503F"/>
    <path d="M1 173.5C1 173.5 98.6291 271.831 179 278C271.731 285.118 299.996 173.5 393 173.5C486.004 173.5 514.034 275.339 607 278C705.794 280.827 739.264 162.634 837.5 173.5C916.95 182.288 933.571 277.024 1013.5 278C1095.11 278.997 1112.88 173.007 1194.5 173.5C1275.27 173.988 1301.26 315.12 1373 278C1420.72 253.308 1438.5 157 1438.5 157" stroke="#5E503F"/>
    <path d="M1 316.5C1 316.5 98.6291 414.831 179 421C271.731 428.118 299.996 316.5 393 316.5C486.004 316.5 514.034 418.339 607 421C705.794 423.827 739.264 305.634 837.5 316.5C916.95 325.288 933.571 420.024 1013.5 421C1095.11 421.997 1112.88 316.007 1194.5 316.5C1275.27 316.988 1301.26 458.12 1373 421C1420.72 396.308 1438.5 300 1438.5 300" stroke="#5E503F"/>
    <path d="M1 443.5C1 443.5 98.6291 541.831 179 548C271.731 555.118 299.996 443.5 393 443.5C486.004 443.5 514.034 545.339 607 548C705.794 550.827 739.264 432.634 837.5 443.5C916.95 452.288 933.571 547.024 1013.5 548C1095.11 548.997 1112.88 443.007 1194.5 443.5C1275.27 443.988 1301.26 585.12 1373 548C1420.72 523.308 1438.5 427 1438.5 427" stroke="#5E503F"/>
    <path d="M1 562.5C1 562.5 98.6291 660.831 179 667C271.731 674.118 299.996 562.5 393 562.5C486.004 562.5 514.034 664.339 607 667C705.794 669.827 739.264 551.634 837.5 562.5C916.95 571.288 933.571 666.024 1013.5 667C1095.11 667.997 1112.88 562.007 1194.5 562.5C1275.27 562.988 1301.26 704.12 1373 667C1420.72 642.308 1438.5 546 1438.5 546" stroke="#5E503F"/>
    <path d="M1 689.5C1 689.5 98.6291 787.831 179 794C271.731 801.118 299.996 689.5 393 689.5C486.004 689.5 514.034 791.339 607 794C705.794 796.827 739.264 678.634 837.5 689.5C916.95 698.288 933.571 793.024 1013.5 794C1095.11 794.997 1112.88 689.007 1194.5 689.5C1275.27 689.988 1301.26 831.12 1373 794C1420.72 769.308 1438.5 673 1438.5 673" stroke="#5E503F"/>

    </svg>
    