<svg width="328" height="13" viewBox="0 0 328 13" fill="none" xmlns="http://www.w3.org/2000/svg">
    <line x1="0.0707606" y1="10.3943" x2="114.075" y2="10.3851" stroke="white" />
    <line x1="213.062" y1="8.50882" x2="327.067" y2="8.49966" stroke="white" />
    <path
        d="M126.227 12.8476C125.58 12.8534 124.989 12.7086 124.453 12.4133C123.917 12.1114 123.49 11.6918 123.172 11.1546C122.86 10.6107 122.702 9.99872 122.696 9.31875C122.69 8.63877 122.838 8.02744 123.139 7.48475C123.448 6.93533 123.867 6.50826 124.398 6.20356C124.929 5.89218 125.517 5.73363 126.164 5.72791C126.817 5.72212 127.412 5.8702 127.948 6.17213C128.484 6.4674 128.908 6.88366 129.219 7.42093C129.531 7.95819 129.689 8.57015 129.695 9.25678C129.701 9.94342 129.554 10.5581 129.252 11.1008C128.95 11.6435 128.534 12.0705 128.003 12.3819C127.472 12.6866 126.88 12.8418 126.227 12.8476ZM126.22 12.0577C126.707 12.0534 127.142 11.9362 127.527 11.7061C127.918 11.4759 128.222 11.1499 128.438 10.728C128.661 10.306 128.77 9.81833 128.765 9.26502C128.76 8.70504 128.643 8.21939 128.413 7.80808C128.189 7.39005 127.883 7.06941 127.494 6.84618C127.105 6.62294 126.664 6.51351 126.171 6.51787C125.678 6.52224 125.239 6.63947 124.854 6.86955C124.469 7.09963 124.166 7.42566 123.943 7.84765C123.726 8.26292 123.621 8.75054 123.626 9.31052C123.631 9.86383 123.745 10.3495 123.969 10.7675C124.199 11.1855 124.508 11.5061 124.897 11.7294C125.292 11.9525 125.733 12.062 126.22 12.0577ZM131.797 8.13814C131.954 7.8234 132.179 7.57807 132.47 7.40215C132.769 7.22617 133.131 7.13629 133.558 7.13251L133.566 8.07247L133.326 8.0746C132.306 8.08363 131.801 8.64145 131.811 9.74808L131.838 12.728L130.928 12.736L130.879 7.25623L131.789 7.24817L131.797 8.13814ZM136.959 9.93251C136.954 9.36587 137.063 8.87155 137.286 8.44956C137.509 8.0209 137.82 7.68814 138.218 7.45128C138.622 7.21435 139.084 7.09359 139.604 7.08899C140.278 7.08303 140.832 7.24145 141.269 7.56427C141.712 7.88703 142.006 8.33778 142.151 8.91652L141.171 8.92519C141.074 8.5927 140.889 8.331 140.614 8.14009C140.345 7.94913 140.011 7.85542 139.611 7.85896C139.091 7.86356 138.673 8.04727 138.356 8.41009C138.039 8.76624 137.884 9.27097 137.889 9.92428C137.895 10.5843 138.06 11.0928 138.383 11.45C138.706 11.8071 139.128 11.9834 139.648 11.9788C140.048 11.9753 140.38 11.879 140.645 11.69C140.91 11.5009 141.091 11.2327 141.188 10.8851L142.168 10.8764C142.026 11.4377 141.737 11.8903 141.3 12.2342C140.863 12.5714 140.314 12.7429 139.654 12.7488C139.135 12.7534 138.67 12.6408 138.261 12.4111C137.859 12.1813 137.543 11.8541 137.313 11.4294C137.082 11.0048 136.965 10.5058 136.959 9.93251ZM145.788 12.6945C145.275 12.699 144.807 12.5865 144.385 12.3569C143.97 12.1272 143.64 11.8001 143.397 11.3756C143.16 10.9443 143.038 10.4454 143.033 9.87874C143.028 9.31876 143.144 8.82439 143.38 8.39561C143.623 7.96011 143.954 7.62718 144.372 7.3968C144.789 7.15976 145.258 7.03894 145.778 7.03433C146.298 7.02973 146.769 7.14223 147.191 7.37184C147.613 7.59478 147.946 7.91851 148.19 8.34304C148.44 8.7675 148.568 9.26306 148.573 9.8297C148.578 10.3963 148.456 10.8974 148.207 11.333C147.964 11.7618 147.63 12.0948 147.205 12.3319C146.781 12.569 146.308 12.6899 145.788 12.6945ZM145.781 11.8945C146.108 11.8916 146.414 11.8122 146.699 11.6564C146.985 11.5005 147.213 11.2685 147.383 10.9603C147.56 10.652 147.647 10.2779 147.643 9.83793C147.639 9.39795 147.549 9.0254 147.373 8.72028C147.197 8.41516 146.969 8.19051 146.687 8.04633C146.406 7.89548 146.102 7.8215 145.775 7.82439C145.442 7.82734 145.136 7.90672 144.857 8.06252C144.585 8.21161 144.367 8.44021 144.203 8.74834C144.04 9.05647 143.96 9.43053 143.963 9.87051C143.967 10.3172 144.051 10.6931 144.213 10.9983C144.383 11.3035 144.605 11.5316 144.879 11.6825C145.154 11.8267 145.455 11.8974 145.781 11.8945ZM152.415 6.96559C153.081 6.95969 153.623 7.15823 154.04 7.56122C154.457 7.95755 154.668 8.5357 154.675 9.29567L154.704 12.5255L153.804 12.5335L153.776 9.43363C153.772 8.88698 153.631 8.47154 153.355 8.18731C153.079 7.8964 152.705 7.75305 152.232 7.75724C151.752 7.76149 151.37 7.91487 151.086 8.2174C150.808 8.51987 150.672 8.95776 150.677 9.53107L150.704 12.5609L149.794 12.569L149.745 7.08922L150.655 7.08116L150.662 7.86113C150.84 7.57955 151.081 7.36074 151.387 7.2047C151.699 7.04859 152.041 6.96889 152.415 6.96559ZM157.258 7.77274L157.287 11.0026C157.289 11.2693 157.348 11.4588 157.462 11.5711C157.576 11.6767 157.773 11.7283 158.053 11.7259L158.723 11.7199L158.73 12.4899L157.91 12.4972C157.404 12.5016 157.023 12.3883 156.767 12.1573C156.512 11.9262 156.382 11.544 156.377 11.0107L156.348 7.7808L155.638 7.78708L155.632 7.03711L156.342 7.03083L156.33 5.65088L157.239 5.64282L157.252 7.02277L158.682 7.01011L158.688 7.76008L157.258 7.77274ZM160.246 6.10623C160.073 6.10776 159.926 6.04906 159.805 5.93013C159.684 5.8112 159.622 5.66507 159.621 5.49174C159.619 5.31841 159.678 5.17122 159.797 5.05016C159.916 4.92911 160.062 4.86781 160.235 4.86628C160.402 4.8648 160.542 4.92356 160.657 5.04255C160.778 5.16148 160.839 5.30761 160.841 5.48094C160.842 5.65427 160.784 5.80146 160.665 5.92252C160.552 6.04352 160.413 6.10475 160.246 6.10623ZM160.694 6.9923L160.743 12.4721L159.833 12.4801L159.784 7.00035L160.694 6.9923ZM164.914 6.85494C165.581 6.84904 166.122 7.04758 166.539 7.45057C166.956 7.8469 167.168 8.42505 167.175 9.18502L167.203 12.4149L166.303 12.4229L166.276 9.32298C166.271 8.77633 166.131 8.36089 165.855 8.07666C165.579 7.78576 165.204 7.6424 164.731 7.64659C164.251 7.65084 163.869 7.80423 163.585 8.10675C163.308 8.40922 163.172 8.84711 163.177 9.42042L163.203 12.4503L162.294 12.4584L162.245 6.97857L163.155 6.97051L163.162 7.75048C163.339 7.4689 163.581 7.25009 163.886 7.09405C164.198 6.93795 164.541 6.85824 164.914 6.85494ZM173.501 6.87893L173.55 12.3587L172.64 12.3668L172.632 11.5568C172.462 11.8383 172.22 12.0605 171.908 12.2232C171.603 12.3793 171.264 12.459 170.89 12.4623C170.464 12.466 170.08 12.3828 169.738 12.2124C169.397 12.0355 169.124 11.7712 168.921 11.4196C168.725 11.068 168.624 10.6389 168.62 10.1323L168.591 6.92239L169.491 6.91442L169.519 10.0043C169.523 10.5443 169.664 10.9597 169.94 11.2506C170.215 11.5349 170.59 11.6749 171.063 11.6707C171.55 11.6664 171.932 11.513 172.209 11.2105C172.487 10.9081 172.623 10.4702 172.618 9.89687L172.591 6.88698L173.501 6.87893ZM180.06 9.35097C180.061 9.52429 180.053 9.70771 180.035 9.90121L175.655 9.93998C175.693 10.4797 175.88 10.9014 176.216 11.2051C176.559 11.502 176.97 11.6484 177.45 11.6442C177.843 11.6407 178.169 11.5478 178.427 11.3655C178.692 11.1765 178.877 10.9282 178.981 10.6206L179.961 10.6119C179.819 11.1398 179.529 11.5724 179.092 11.9096C178.655 12.2402 178.11 12.4083 177.457 12.4141C176.937 12.4187 176.469 12.3062 176.054 12.0765C175.645 11.8468 175.322 11.5197 175.085 11.0951C174.848 10.6638 174.727 10.1649 174.722 9.59823C174.717 9.03159 174.826 8.53393 175.048 8.10528C175.271 7.67662 175.585 7.34716 175.99 7.11691C176.401 6.87992 176.873 6.75907 177.407 6.75435C177.927 6.74975 178.388 6.85901 178.79 7.08212C179.192 7.30524 179.501 7.61585 179.718 8.01394C179.941 8.40531 180.055 8.85099 180.06 9.35097ZM179.118 9.1693C179.115 8.82264 179.036 8.52667 178.88 8.28137C178.725 8.0294 178.513 7.84127 178.245 7.71697C177.984 7.58594 177.693 7.52184 177.373 7.52468C176.913 7.52875 176.521 7.67889 176.197 7.9751C175.88 8.27126 175.7 8.67953 175.658 9.19992L179.118 9.1693ZM191.204 6.72222L189.543 12.2171L188.603 12.2255L187.244 7.88731L185.963 12.2488L185.023 12.2571L183.254 6.79259L184.184 6.78436L185.485 11.373L186.804 6.76116L187.734 6.75293L189.105 11.351L190.304 6.73018L191.204 6.72222ZM192.569 5.8201C192.396 5.82163 192.249 5.76293 192.128 5.644C192.007 5.52506 191.945 5.37893 191.944 5.20561C191.942 5.03228 192.001 4.88509 192.12 4.76403C192.239 4.64297 192.385 4.58168 192.558 4.58014C192.725 4.57867 192.865 4.63743 192.98 4.75642C193.101 4.87535 193.162 5.02148 193.164 5.19481C193.165 5.36814 193.107 5.51533 192.988 5.63639C192.875 5.75738 192.736 5.81862 192.569 5.8201ZM193.017 6.70617L193.066 12.186L192.156 12.194L192.107 6.71422L193.017 6.70617ZM195.685 7.43258L195.713 10.6625C195.716 10.9291 195.774 11.1186 195.888 11.2309C196.002 11.3366 196.2 11.3882 196.48 11.3857L197.15 11.3798L197.156 12.1497L196.336 12.157C195.83 12.1615 195.449 12.0482 195.193 11.8171C194.938 11.586 194.808 11.2038 194.803 10.6705L194.775 7.44064L194.065 7.44692L194.058 6.69695L194.768 6.69067L194.756 5.31072L195.666 5.30267L195.678 6.68261L197.108 6.66995L197.115 7.41992L195.685 7.43258ZM200.929 6.53612C201.343 6.53246 201.717 6.61915 202.052 6.7962C202.387 6.96657 202.649 7.22759 202.839 7.57926C203.035 7.93087 203.136 8.36 203.14 8.86664L203.169 12.0965L202.269 12.1045L202.241 9.0046C202.236 8.45796 202.096 8.04252 201.82 7.75828C201.544 7.46738 201.17 7.32402 200.696 7.32821C200.216 7.33246 199.834 7.48585 199.55 7.78838C199.273 8.09084 199.137 8.52873 199.142 9.10204L199.169 12.1319L198.259 12.14L198.193 4.74027L199.103 4.73221L199.127 7.43211C199.305 7.15053 199.55 6.93168 199.861 6.77558C200.18 6.61942 200.536 6.5396 200.929 6.53612Z"
        fill="#000000" />
</svg>
    