<svg width="1440" height="39" viewBox="0 0 1440 39" fill="none" xmlns="http://www.w3.org/2000/svg">
    <path
        d="M1388.95 0.752716C1419.59 0.752716 1458.3 12.0917 1458.3 36.4273V109.263H-0.695801C-0.695801 109.263 -41.8804 10.7298 -0.695801 0.752716C27.7076 -6.12814 65.0892 36.4273 65.0892 36.4273C65.0892 36.4273 105.089 -3.37598 135.974 0.752716C160.606 4.04564 187.99 36.4273 187.99 36.4273C187.99 36.4273 229.824 -4.51728 261.424 0.752716C285.293 4.73331 311.401 36.4273 311.401 36.4273C311.401 36.4273 342.345 1.15836 369.026 0.752716C396.382 0.336807 428.692 36.4273 428.692 36.4273C428.692 36.4273 467.909 -4.65005 498.047 0.752716C520.772 4.82679 544.453 36.4273 544.453 36.4273C544.453 36.4273 584.453 -3.37598 615.338 0.752716C639.97 4.04564 667.354 36.4273 667.354 36.4273C667.354 36.4273 707.529 -2.05467 738.748 0.752716C765.319 3.1421 796.374 36.4273 796.374 36.4273C796.374 36.4273 833.091 0.752716 873.378 0.752716C913.665 0.752716 935.084 36.4273 935.084 36.4273C962.168 22.4955 967.721 0.752716 1004.44 0.752716C1041.16 0.752716 1069.71 36.4273 1069.71 36.4273C1069.71 36.4273 1103.39 1.41676 1131.42 0.752716C1160.66 0.0600891 1196.69 36.4273 1196.69 36.4273C1196.69 36.4273 1230.39 2.11074 1258.4 0.752716C1289.01 -0.731483 1327.75 36.4273 1327.75 36.4273C1344.3 13.7629 1366.3 0.752716 1388.95 0.752716Z"
        fill="#EAE0D5" />
</svg>
    